<svg width="32" height="32" viewBox="0 0 32 32" fill="none" xmlns="http://www.w3.org/2000/svg">
<path d="M21.4214 11.3714C21.7857 14.0357 21.0857 17.0143 18.8571 18.5643C17.2643 19.6714 15.0857 19.5714 13.8 18.9714C11.15 17.7357 10.2643 14.7857 10.4571 12.0286C10.7643 7.67857 13.3786 5.75 15.8357 5.77857C19.1857 5.76429 20.9643 8.05 21.4214 11.3714ZM32 4V28C32 30.2071 30.2071 32 28 32H4C1.79286 32 0 30.2071 0 28V4C0 1.79286 1.79286 0 4 0H28C30.2071 0 32 1.79286 32 4ZM23.5714 20.0857C23.5714 20.0857 23.5643 17.6571 23.5643 4.56429H21.4929V7.44286C21.4357 7.46429 21.4071 7.40714 21.3786 7.35714C20.6929 5.87857 18.8143 4.05 15.95 4.07143C12.2429 4.1 9.72143 6.3 8.76429 9.62857C8.45714 10.6929 8.35 11.7786 8.37143 12.8857C8.49286 18.45 11.5929 21.3 16.4 21.1143C18.4643 21.0357 20.2929 19.9 21.3286 17.8857C21.3643 17.8143 21.4071 17.75 21.45 17.6786C21.4643 17.6857 21.4786 17.6857 21.4929 17.6929C21.5143 17.9643 21.5071 19.8857 21.5 20.1571C21.4857 21.2143 21.3571 22.2643 20.9857 23.2643C20.4286 24.7643 19.3929 25.7429 17.8071 26.0857C16.5357 26.3643 15.2643 26.3571 14.0071 26C12.4714 25.5643 11.4 24.6429 11.0714 23.0143C11.05 22.9 10.9786 22.9214 10.9071 22.9214H8.99286C9.05 23.6786 9.22143 24.3714 9.6 25.0071C11.3286 27.9 15.5071 28.4714 18.7571 27.6786C22.3214 26.8 23.5643 23.7571 23.5714 20.0857Z" fill="black"/>
</svg>
