<svg width="29" height="32" viewBox="0 0 29 32" fill="none" xmlns="http://www.w3.org/2000/svg">
<path d="M6.43216 25.5999H22.4322V22.3999H6.43216V25.5999Z" fill="black"/>
<path d="M22.4322 19.2H6.43216V16H22.4322V19.2Z" fill="black"/>
<path d="M6.43216 12.8001H12.8322V9.6001H6.43216V12.8001Z" fill="black"/>
<path fill-rule="evenodd" clip-rule="evenodd" d="M4.83217 0C3.55913 0 2.33823 0.505713 1.43805 1.40589C0.537878 2.30606 0.0321655 3.52696 0.0321655 4.8V27.2C0.0321655 28.473 0.537878 29.6939 1.43805 30.5941C2.33823 31.4943 3.55913 32 4.83217 32H24.0322C25.3052 32 26.5261 31.4943 27.4263 30.5941C28.3265 29.6939 28.8322 28.473 28.8322 27.2V11.2C28.8322 8.22958 27.6522 5.38081 25.5518 3.2804C23.4514 1.18 20.6026 0 17.6322 0H4.83217ZM4.83217 3.2H16.0322V11.2H25.6322V27.2C25.6322 27.6243 25.4636 28.0313 25.1635 28.3314C24.8635 28.6314 24.4565 28.8 24.0322 28.8H4.83217C4.40782 28.8 4.00085 28.6314 3.70079 28.3314C3.40074 28.0313 3.23217 27.6243 3.23217 27.2V4.8C3.23217 4.37565 3.40074 3.96869 3.70079 3.66863C4.00085 3.36857 4.40782 3.2 4.83217 3.2V3.2ZM19.2322 3.36C20.4897 3.61763 21.667 4.17358 22.6649 4.98105C23.6628 5.78851 24.4522 6.82387 24.9666 8H19.2322V3.36Z" fill="black"/>
</svg>
